<svg id="Layer_1" data-name="Layer 1" xmlns="http://www.w3.org/2000/svg" viewBox="0 0 512 512"><title>equalizer-glyph</title><path d="M21.33,106.67H301.48a85.21,85.21,0,0,0,165,0h24.14a21.33,21.33,0,0,0,0-42.67H466.52a85.21,85.21,0,0,0-165,0H21.33a21.33,21.33,0,0,0,0,42.67ZM384,42.67a42.67,42.67,0,1,1-42.67,42.67A42.71,42.71,0,0,1,384,42.67Zm106.67,192H210.52a85.21,85.21,0,0,0-165,0H21.33a21.33,21.33,0,1,0,0,42.67H45.48a85.21,85.21,0,0,0,165,0H490.67a21.33,21.33,0,0,0,0-42.67ZM128,298.67A42.67,42.67,0,1,1,170.67,256,42.71,42.71,0,0,1,128,298.67ZM490.67,405.33H466.52a85.21,85.21,0,0,0-165,0H21.33a21.33,21.33,0,0,0,0,42.67H301.48a85.21,85.21,0,0,0,165,0h24.14a21.33,21.33,0,0,0,0-42.67ZM384,469.33a42.67,42.67,0,1,1,42.67-42.67A42.71,42.71,0,0,1,384,469.33Z"/></svg>