<svg id="Layer_1" data-name="Layer 1" xmlns="http://www.w3.org/2000/svg" viewBox="0 0 512 512"><title>gesture-47-filled</title><path d="M177.23,354.46a15.75,15.75,0,0,0-15.75-15.75h-63a15.75,15.75,0,0,0,0,31.51h63A15.75,15.75,0,0,0,177.23,354.46Z"/><path d="M330.15,398.46a15.75,15.75,0,0,0-22.28,22.28L355.14,468a15.75,15.75,0,0,0,22.28-22.28Z"/><path d="M256,417.48a15.75,15.75,0,0,0-15.75,15.75v63a15.75,15.75,0,0,0,31.51,0v-63A15.75,15.75,0,0,0,256,417.48Z"/><path d="M181.85,398.46l-47.26,47.26A15.75,15.75,0,1,0,156.86,468l47.26-47.26a15.75,15.75,0,1,0-22.28-22.28Z"/><path d="M413.54,338.71h-63a15.75,15.75,0,0,0,0,31.51h63a15.75,15.75,0,1,0,0-31.51Z"/><path d="M249.85,249.12A7.88,7.88,0,0,1,256,236.31H382.88a24.25,24.25,0,0,0,17.65-7.37,23.49,23.49,0,0,0,6.38-18.61C405.77,198.39,394.84,189,382,189H366.54a8.05,8.05,0,0,1-8.13-7.36,7.87,7.87,0,0,1,7.86-8.39h15.25a24.25,24.25,0,0,0,17.65-7.37,23.49,23.49,0,0,0,6.38-18.61C404.42,135.38,393.48,126,380.68,126H335a8.05,8.05,0,0,1-8.13-7.36,7.87,7.87,0,0,1,7.86-8.39H350a24.25,24.25,0,0,0,17.65-7.37A23.49,23.49,0,0,0,374,84.3C372.91,72.36,362,63,349.17,63H311.4a8.05,8.05,0,0,1-8.13-7.36,7.87,7.87,0,0,1,7.86-8.39h15.25A24.25,24.25,0,0,0,344,39.9a23.49,23.49,0,0,0,6.38-18.61C349.28,9.35,338.35,0,325.54,0H263.12A122.2,122.2,0,0,0,221,7.47l-13.69,5a181.93,181.93,0,0,1-62.79,11.14H119.34a13,13,0,0,0-13,13V223.31a13,13,0,0,0,13,13h3.32c80.37,0,99.83,62.41,112.71,103.71l2.29,7.29c1.12,3.52,5.62,15,16.4,15a25.61,25.61,0,0,0,25.58-25.58C279.66,335.92,281.44,288.48,249.85,249.12Z"/></svg>